<?xml version="1.0" encoding="UTF-8"?>
<svg version="1.1" xmlns="http://www.w3.org/2000/svg" viewBox="0 0 241 318" width="100%" height="100%">
<path d="M0 0 C6.42803228 0.09425047 12.70944187 0.52682303 19.08561707 1.33560181 C20.04915604 1.45246338 21.01269501 1.56932495 22.00543213 1.68972778 C25.15405537 2.07324885 28.30143458 2.46612607 31.44889832 2.85903931 C33.67376432 3.13157492 35.89870056 3.40353779 38.123703 3.67495728 C49.21593915 5.03240605 60.30364983 6.42557907 71.39030457 7.82778931 C75.43063498 8.33847687 79.47100713 8.84883286 83.51139832 9.35903931 C84.50296936 9.48447113 85.49454041 9.60990295 86.51615906 9.73913574 C102.37866371 11.74145562 118.25539444 13.5064371 134.16015625 15.1348877 C134.89481613 15.21014679 135.62947601 15.28540588 136.38639832 15.36294556 C137.10482407 15.43651276 137.82324982 15.51007996 138.56344604 15.58587646 C148.131613 16.57238465 157.6794935 17.72111136 167.2228241 18.92251587 C169.64929106 19.22028196 172.07721326 19.49287962 174.50749207 19.75747681 C175.88381013 19.91619243 177.26011356 20.07503511 178.63639832 20.23403931 C179.76819519 20.35778931 180.89999207 20.48153931 182.06608582 20.60903931 C185.06600032 21.30467166 185.88295135 21.86755347 187.76139832 24.23403931 C188.05007512 27.30729452 188.15274145 30.17670094 188.12216187 33.25056458 C188.12472514 34.18417779 188.12728841 35.117791 188.12992936 36.07969552 C188.13488753 39.22140468 188.1183407 42.36263778 188.10197449 45.50430298 C188.10112866 47.75102222 188.1016025 49.9977423 188.103302 52.24446106 C188.10416509 58.35573092 188.08648855 64.46682524 188.06558013 70.57805419 C188.04686555 76.96022519 188.04506701 83.34239991 188.04150391 89.72459412 C188.03322973 100.44058863 188.01447286 111.15650617 187.98771667 121.87246704 C187.96018483 132.91054969 187.93894698 143.94861481 187.92619324 154.98672485 C187.92501098 156.00709509 187.92501098 156.00709509 187.92380484 157.04807886 C187.91988976 160.46063509 187.91609863 163.87319145 187.91236913 167.28574789 C187.8812627 195.60188951 187.82819491 223.91796095 187.76139832 252.23403931 C183.14139832 251.90403931 178.52139832 251.57403931 173.76139832 251.23403931 C173.76139832 179.29403931 173.76139832 107.35403931 173.76139832 33.23403931 C164.3424546 32.12592828 155.66103792 31.15074551 146.32052612 30.67553711 C140.6436836 30.36064881 135.04172952 29.69808222 129.40592957 28.96060181 C114.65436976 27.07524974 99.88715931 25.32926214 85.11784363 23.5897522 C81.22654359 23.13130039 77.33560336 22.6698616 73.44472885 22.20781422 C70.41492379 21.84852924 67.38487736 21.49131378 64.35475922 21.13467979 C62.91777282 20.96519885 61.48087629 20.7949541 60.04407501 20.6239109 C58.05525189 20.38735328 56.06604782 20.15400515 54.076828 19.92080688 C52.95008667 19.78773636 51.82334534 19.65466583 50.66246033 19.51756287 C47.58370674 19.16919428 47.58370674 19.16919428 43.76139832 19.23403931 C47.36495626 20.902024 50.96935861 22.56817737 54.57389832 24.23403931 C55.70633972 24.75788208 56.83878113 25.28172485 58.00553894 25.82144165 C65.06187571 29.08211468 72.1306494 32.31405384 79.21061707 35.52310181 C81.60461122 36.61015779 83.99848509 37.69747832 86.39234924 38.78482056 C87.97171149 39.50096466 89.55181163 40.21548366 91.13264465 40.92837524 C93.36488768 41.93514379 95.59459599 42.94734195 97.82389832 43.96060181 C98.83313606 44.41301743 98.83313606 44.41301743 99.86276245 44.87457275 C102.57108748 46.11070692 104.63763605 47.11027704 106.76139832 49.23403931 C106.96109262 51.81038444 107.03506917 54.27959768 107.02209473 56.85731506 C107.02783305 58.05114236 107.02783305 58.05114236 107.03368729 59.26908737 C107.04405175 61.9507488 107.04001867 64.63219749 107.03605652 67.31387329 C107.04040109 69.23046061 107.04558338 71.14704618 107.05154419 73.06362915 C107.06497289 78.28050738 107.06550857 83.49731335 107.06298089 88.7142055 C107.06191379 93.0633535 107.06678784 97.41248671 107.07158631 101.76163155 C107.0826949 112.01880272 107.08311132 122.27593728 107.07707214 132.53311157 C107.07103011 143.12817585 107.08334613 153.7231074 107.10464221 164.31814903 C107.1222333 173.40267074 107.12826352 182.48715011 107.12500447 191.57168823 C107.12318747 197.00275373 107.12586913 202.43372456 107.13971901 207.8647747 C107.15225225 212.97092728 107.15039613 218.07687233 107.13730812 223.18302155 C107.13493292 225.06039308 107.13771054 226.93777901 107.14593124 228.81513405 C107.15632107 231.37159353 107.14836119 233.92734659 107.13562012 236.48377991 C107.1429944 237.23241206 107.15036869 237.98104421 107.15796643 238.75236219 C107.10550719 243.73147945 107.10550719 243.73147945 105.45749187 246.13835239 C102.58089206 247.99665364 99.33763998 248.80496684 96.07389832 249.73403931 C94.69428783 250.13789129 93.31537814 250.54414497 91.93717957 250.95278931 C91.32785583 251.12745728 90.7185321 251.30212524 90.09074402 251.48208618 C87.33754812 252.37086549 84.64304247 253.39807704 81.93789673 254.42230225 C78.29447297 255.78113719 74.61583389 257.03717836 70.94108582 258.30825806 C58.20307455 262.74168807 45.54798987 267.4004016 32.88639832 272.04653931 C29.3735978 273.33482354 25.86064091 274.62267587 22.3473053 275.90950012 C20.18334177 276.70215309 18.01968907 277.49565531 15.85639954 278.29014587 C13.16038903 279.2780099 10.46184564 280.25838123 7.76139832 281.23403931 C6.59721375 281.65515991 5.43302917 282.07628052 4.23356628 282.51016235 C1.34328823 283.35646637 -0.38728952 283.13016599 -3.23860168 282.23403931 C-4.83549921 280.63714178 -4.36539329 278.97274702 -4.36723614 276.7593317 C-4.37046058 275.78670669 -4.37368503 274.81408167 -4.37700719 273.81198317 C-4.37545858 272.73068567 -4.37390998 271.64938818 -4.37231445 270.5353241 C-4.37458001 269.39656969 -4.37684557 268.25781529 -4.37917978 267.08455318 C-4.38443792 263.90962389 -4.38516077 260.73472994 -4.3839854 257.55979764 C-4.38378213 254.14119962 -4.38929309 250.72261018 -4.39404297 247.30401611 C-4.40236606 240.60113643 -4.40509855 233.89826553 -4.40565535 227.19538111 C-4.40612972 221.74967253 -4.40818051 216.30396686 -4.41135597 210.8582592 C-4.42016703 195.43512678 -4.42477464 180.01200132 -4.4240255 164.58886636 C-4.42398554 163.75658544 -4.42394559 162.92430453 -4.42390442 162.06680298 C-4.42386354 161.23351158 -4.42382266 160.40022018 -4.42378054 159.54167753 C-4.42337393 146.03127323 -4.43294609 132.52089679 -4.44704279 119.01050056 C-4.46138683 105.1542452 -4.46831406 91.29800343 -4.46744901 77.44174045 C-4.46711636 69.65601389 -4.46989313 61.87031653 -4.48062706 54.08459663 C-4.48970618 47.45643715 -4.49192874 40.8283201 -4.48511764 34.20015711 C-4.48183927 30.81565235 -4.48184277 27.4312291 -4.49047089 24.04673195 C-4.49811848 20.38432643 -4.49359433 16.72213855 -4.48583984 13.05973816 C-4.49098341 11.98067139 -4.49612697 10.90160462 -4.5014264 9.78983885 C-4.4968276 8.81460609 -4.49222881 7.83937332 -4.48749065 6.83458805 C-4.48770802 5.98835379 -4.48792539 5.14211952 -4.48814934 4.2702418 C-4.11303855 1.20949771 -3.02622622 0.31638317 0 0 Z " fill="#4F46C5" transform="translate(21.238601684570313,20.765960693359375)"/>
<path d="M0 0 C9.48150553 0.64282564 18.89581509 1.63010712 28.328125 2.77734375 C29.77094612 2.95073197 31.21379758 3.12386788 32.65667725 3.29676819 C36.42487512 3.7489564 40.19267445 4.20438128 43.96038818 4.6605835 C47.74810714 5.11868818 51.5361722 5.57391041 55.32421875 6.02929688 C56.80729305 6.20768604 58.29036598 6.38608662 59.7734375 6.5644989 C60.85908997 6.69509484 60.85908997 6.69509484 61.9666748 6.82832909 C63.04278015 6.95777884 63.04278015 6.95777884 64.140625 7.08984375 C65.21117126 7.21862128 65.21117126 7.21862128 66.30334473 7.35000038 C79.41097839 8.9269551 79.41097839 8.9269551 85.59765625 9.68432617 C87.09113813 9.86513523 88.58462679 10.04588835 90.078125 10.2265625 C91.2527832 10.3704541 92.42744141 10.5143457 93.63769531 10.66259766 C96.78009949 10.97793331 99.89993613 11.17791542 103.05389404 11.3140564 C103.86110901 11.35479279 104.66832397 11.39552917 105.5 11.4375 C106.7666814 11.50119593 108.03336281 11.56489185 109.3384285 11.63051796 C113.97281242 11.93933515 118.47000953 12.68178691 123.03125 13.53515625 C123.8037207 13.67570435 124.57619141 13.81625244 125.37207031 13.96105957 C127.24882236 14.30314557 129.12452883 14.65095993 131 15 C130.9939037 16.66314743 130.9939037 16.66314743 130.98768425 18.3598938 C130.89091387 45.38733836 130.85197109 72.41440021 130.87302971 99.4420166 C130.88188663 112.51265368 130.87222213 125.58277878 130.81835938 138.65332031 C130.77143859 150.05085639 130.7598766 161.44779779 130.7900821 172.84539986 C130.80484741 178.87589659 130.80237677 184.90523558 130.75750351 190.93560791 C130.71574524 196.62264824 130.72159851 202.30773506 130.76252174 207.99476242 C130.76933766 210.07148194 130.75939465 212.14834194 130.73056984 214.22487259 C130.5557224 227.71517503 132.46323049 236.59299998 140.77315164 247.39746284 C142.56240976 249.73463238 144.18590101 252.17940169 145.828125 254.62109375 C146.96445046 256.22960851 148.10493064 257.83519808 149.25 259.4375 C162 277.39949324 162 277.39949324 162 279 C156.20257956 279.42307156 150.41424205 279.72975985 144.60498047 279.93383789 C142.63463924 280.01890833 140.66535875 280.13463722 138.69873047 280.2824707 C122.86887103 281.44182939 122.86887103 281.44182939 118.18457031 277.45480347 C114.94050068 273.41871266 112.86664494 268.88437829 110.89935303 264.12283325 C109.71420967 261.3254204 108.22389607 258.76083246 106.671875 256.15234375 C105.69688362 254.41464172 104.72292851 252.67635786 103.75 250.9375 C97.59949589 240.00672603 91.30562094 229.16419355 84.9609375 218.34521484 C83.1681018 215.28676928 81.37776345 212.22688245 79.58843994 209.16638184 C78.0260734 206.49433092 76.46279415 203.82281478 74.89929199 201.15142822 C74.13774852 199.85009076 73.3764338 198.5486194 72.61535645 197.24700928 C71.5517668 195.42846458 70.48698244 193.61062479 69.421875 191.79296875 C68.80924805 190.7464917 68.19662109 189.70001465 67.56542969 188.62182617 C66.42784224 186.71656236 65.23090153 184.84635229 64 183 C63.73828697 180.25701618 63.73828697 180.25701618 63.7215271 176.86872864 C63.71036362 175.58565323 63.69920013 174.30257782 63.68769836 172.98062134 C63.68533332 171.55584746 63.68315768 170.13107326 63.68115234 168.70629883 C63.67185579 167.2083329 63.66168753 165.71037216 63.65071106 164.2124176 C63.62336613 160.14248815 63.60824839 156.07259339 63.59528303 152.00259614 C63.57967211 147.75044405 63.55287542 143.49836302 63.5272522 139.2462616 C63.48042824 131.19279722 63.44370167 123.13931954 63.41057932 115.08578843 C63.37238346 105.91777205 63.32296668 96.74982698 63.27259517 87.58187068 C63.16922153 68.72129928 63.07997883 49.86068438 63 31 C60.4701925 29.73010256 57.93984333 28.46130453 55.40917969 27.19311523 C54.70091034 26.83744225 53.99264099 26.48176926 53.26290894 26.1153183 C46.98295829 22.97004087 40.63684632 19.98452103 34.25 17.0625 C33.15179932 16.5567041 32.05359863 16.0509082 30.92211914 15.52978516 C25.60253861 13.0851434 20.27241456 10.66813022 14.91796875 8.30078125 C13.98887695 7.88884521 13.05978516 7.47690918 12.10253906 7.05249023 C10.36367335 6.28420979 8.62223299 5.52172281 6.87792969 4.76586914 C1.1100559 2.22011179 1.1100559 2.22011179 0 0 Z " fill="#FDFDFD" transform="translate(64,39)"/>
<path d="M0 0 C2.4552862 2.37456555 4.1163512 4.66057443 5.828125 7.62890625 C6.37291504 8.56822998 6.91770508 9.50755371 7.47900391 10.4753418 C8.06343262 11.494104 8.64786133 12.51286621 9.25 13.5625 C10.17111572 15.1554187 10.17111572 15.1554187 11.11083984 16.78051758 C12.41485695 19.03703844 13.71671983 21.29480535 15.01660156 23.55371094 C16.95172747 26.91612321 18.89287324 30.27498256 20.8359375 33.6328125 C26.22320518 42.94885889 31.59240302 52.27455637 36.91162109 61.62963867 C41.27385578 69.29949419 45.71161724 76.89616019 50.375 84.38671875 C56 93.43269231 56 93.43269231 56 96 C16.4 96 -23.2 96 -64 96 C-62.5043963 92.26099074 -60.97616774 88.95052911 -59.06640625 85.4375 C-58.49986328 84.39335937 -57.93332031 83.34921875 -57.34960938 82.2734375 C-56.75986328 81.19320312 -56.17011719 80.11296875 -55.5625 79 C-54.97662109 77.91976562 -54.39074219 76.83953125 -53.78710938 75.7265625 C-49.26532425 67.41181573 -49.26532425 67.41181573 -47.24584961 64.27734375 C-46.83471924 63.52582031 -46.42358887 62.77429688 -46 62 C-46.33 61.34 -46.66 60.68 -47 60 C-46.23445801 59.74831055 -45.46891602 59.49662109 -44.68017578 59.23730469 C-41.16069886 58.07813508 -37.64284862 56.91410136 -34.125 55.75 C-32.92101562 55.35425781 -31.71703125 54.95851563 -30.4765625 54.55078125 C-24.28395843 52.49779838 -18.16747703 50.36357229 -12.13647461 47.87280273 C-9.92044326 46.9674991 -7.68540076 46.13510763 -5.4375 45.3125 C-2.21344133 44.34956335 -2.21344133 44.34956335 -1 43 C-0.87814857 41.65016252 -0.82233169 40.29425299 -0.79467773 38.93920898 C-0.77473251 38.07839218 -0.75478729 37.21757538 -0.73423767 36.33067322 C-0.71752518 35.39526199 -0.70081268 34.45985077 -0.68359375 33.49609375 C-0.66281265 32.54307877 -0.64203156 31.59006378 -0.62062073 30.60816956 C-0.55501823 27.5513559 -0.49619082 24.49445344 -0.4375 21.4375 C-0.39432494 19.37043337 -0.35071099 17.30337586 -0.30664062 15.23632812 C-0.19932599 10.15764405 -0.09808909 5.0788703 0 0 Z " fill="#ADA7E5" transform="translate(128,222)"/>
<path d="M0 0 C0.33 0 0.66 0 1 0 C1.33 91.74 1.66 183.48 2 278 C7.278884 279.0557768 9.79605402 278.36046529 14.578125 276.5234375 C15.68550018 276.11525284 15.68550018 276.11525284 16.81524658 275.69882202 C19.21479333 274.81113586 21.60733931 273.90606452 24 273 C25.62135417 272.3951108 27.24310109 271.79127331 28.86523438 271.18847656 C32.16383014 269.96052678 35.46142218 268.7299522 38.7578125 267.49609375 C39.57797852 267.18913574 40.39814453 266.88217773 41.24316406 266.56591797 C42.93675514 265.93024403 44.62944358 265.29216083 46.32128906 264.65185547 C48.81042332 263.71095703 51.30321866 262.78039791 53.796875 261.8515625 C54.54894226 261.56415192 55.30100952 261.27674133 56.0758667 260.98062134 C59.83094609 259.59190981 62.9800142 258.6394853 67 259 C61.24805219 271.05073573 54.65374372 282.35594848 48 294 C27.54 294 7.08 294 -14 294 C-7.64083339 285.52111119 -7.64083339 285.52111119 -4.17998409 282.21974945 C0.11260672 277.34802161 -0.02246597 272.7569888 -0.12025452 266.48400879 C-0.11018999 265.34194583 -0.10012546 264.19988288 -0.08975595 263.02321196 C-0.06456259 259.20556738 -0.08912025 255.38989101 -0.11352539 251.57226562 C-0.10952132 248.83216574 -0.09498128 246.09214532 -0.08087158 243.3520813 C-0.05602033 237.45780879 -0.05662176 231.56398421 -0.07469368 225.66969299 C-0.10078501 217.1477196 -0.08820637 208.62614518 -0.06630235 200.10417598 C-0.03180681 186.27675784 -0.02842313 172.44951509 -0.04467773 158.62207031 C-0.06039726 145.19298955 -0.06141897 131.7640398 -0.04272461 118.33496094 C-0.04100271 117.09253646 -0.04100271 117.09253646 -0.03924603 115.82501251 C-0.03339648 111.6696054 -0.0272585 107.51419878 -0.02097714 103.3587923 C0.03072947 68.90581565 0.03191383 34.45299838 0 0 Z " fill="#FBFBFD" transform="translate(16,24)"/>
<path d="M0 0 C4.91522175 -0.9161508 9.10278666 -1.11187992 14 0 C18.41157334 3.08823082 21.44572148 7.74161832 24.56201172 12.05859375 C26.37447054 14.50556702 28.34009979 16.7857018 30.34375 19.07666016 C32.61299368 21.67604727 34.80651762 24.33666709 37 27 C38.22009766 28.47339844 38.22009766 28.47339844 39.46484375 29.9765625 C45.47345042 37.64307997 45.47345042 37.64307997 45.5 42.6875 C45.335 43.780625 45.17 44.87375 45 46 C39.89274908 47.06749917 34.99595147 47.7486452 30 46 C25.40288031 42.45208544 22.68811685 36.85775097 19.78857422 31.93847656 C17.71249722 28.52765719 15.50100303 25.22928748 13.25390625 21.9296875 C12.84146164 21.32250381 12.42901703 20.71532013 12.0040741 20.08973694 C11.16887788 18.86021117 10.33350495 17.63080541 9.49795532 16.40151978 C7.49103668 13.44407169 5.4958778 10.47927312 3.515625 7.50390625 C2.49903809 5.98518921 2.49903809 5.98518921 1.46191406 4.43579102 C0 2 0 2 0 0 Z " fill="#ADA6E7" transform="translate(196,272)"/>
<path d="M0 0 C0.33 0 0.66 0 1 0 C1.33 91.74 1.66 183.48 2 278 C7.92192866 279.18438573 10.63564126 277.9207435 16.09179688 275.73828125 C17.71036367 275.11162758 19.35405229 274.55073536 21 274 C21.66 274.33 22.32 274.66 23 275 C21.41845837 277.23045661 19.83483359 279.45938423 18.25 281.6875 C17.8065625 282.31333984 17.363125 282.93917969 16.90625 283.58398438 C16.02365076 284.82351713 15.12878231 286.05440798 14.22167969 287.27612305 C12.84587273 289.14492618 12.84587273 289.14492618 11.40625 291.9375 C7.30608572 295.45192653 2.43804003 294.51687733 -2.75 294.3125 C-3.82894531 294.28994141 -4.90789063 294.26738281 -6.01953125 294.24414062 C-8.6810935 294.1852565 -11.33984228 294.10307001 -14 294 C-13.15047066 292.82995226 -12.29499479 291.6642227 -11.4375 290.5 C-10.96183594 289.8503125 -10.48617188 289.200625 -9.99609375 288.53125 C-8 286 -8 286 -6.30474752 284.40766668 C-1.5431678 279.7182248 -0.18784807 276.33535393 -0.07025772 269.69122362 C-0.08675667 268.63284273 -0.10325561 267.57446183 -0.12025452 266.48400879 C-0.11018999 265.34194583 -0.10012546 264.19988288 -0.08975595 263.02321196 C-0.06456259 259.20556738 -0.08912025 255.38989101 -0.11352539 251.57226562 C-0.10952132 248.83216574 -0.09498128 246.09214532 -0.08087158 243.3520813 C-0.05602033 237.45780879 -0.05662176 231.56398421 -0.07469368 225.66969299 C-0.10078501 217.1477196 -0.08820637 208.62614518 -0.06630235 200.10417598 C-0.03180681 186.27675784 -0.02842313 172.44951509 -0.04467773 158.62207031 C-0.06039726 145.19298955 -0.06141897 131.7640398 -0.04272461 118.33496094 C-0.04100271 117.09253646 -0.04100271 117.09253646 -0.03924603 115.82501251 C-0.03339648 111.6696054 -0.0272585 107.51419878 -0.02097714 103.3587923 C0.03072947 68.90581565 0.03191383 34.45299838 0 0 Z " fill="#B8B2E9" transform="translate(16,24)"/>
<path d="M0 0 C2.4375 1.5625 2.4375 1.5625 4 4 C4 7.82389746 3.85254277 10.05611336 1.25 12.9375 C-1.52291498 14.24693207 -2.97519717 14.60496057 -6 14 C-8.56412763 11.57447386 -9.82087126 9.91803481 -10.5 6.4375 C-9.31541251 0.66263599 -5.51230837 -0.91871806 0 0 Z " fill="#F3F3FA" transform="translate(113,163)"/>
<path d="M0 0 C4.29 0.33 8.58 0.66 13 1 C13 1.33 13 1.66 13 2 C11.35 2 9.7 2 8 2 C8 2.66 8 3.32 8 4 C5.64828869 3.40138258 3.3140622 2.73075648 1 2 C0.67 1.34 0.34 0.68 0 0 Z " fill="#DDDCF4" transform="translate(64,39)"/>
</svg>
